# xmcd
#
# Track frame offsets:
#	150
#	10874
#	22921
#	34645
#	47507
#	58905
#	72218
#	86444
#	98826
#	110700
#	121006
#	133170
#	145035
#	156687
#	169985
#
# Disc length: 2401 seconds
#
# Revision: 0
# Processed by: cddbd v1.5.2PL0 Copyright (c) Steve Scherf et al.
# Submitted via: FairStars CD Ripper 1.90
#
DISCID=c8095f0f
DTITLE=Various Artist - Music As Featured in The Last Picture Show [CD1]
DYEAR=2017
DGENRE=Country
TTITLE0=Hank Williams - Why Don't You Love Me
TTITLE1=Hank Williams - Cold Cold Heart
TTITLE2=Eddy Arnold - Bouquet of Roses
TTITLE3=Hank Williams - Hey Good Lookin'
TTITLE4=Frankie Laine - Rose, Rose, I Love You
TTITLE5=Pee Wee King - Slow Poke
TTITLE6=Eddie Arnold - Anything That's Part Of You
TTITLE7=Hank Snow - (Now And Then There's) A Fool Such As I
TTITLE8=Tony Bennet - Cold, Cold, Heart
TTITLE9=Phil Harris - The Thing
TTITLE10=Hank Williams - Lovesick Blues
TTITLE11=Hank Thompson - Wild Side Of Life
TTITLE12=Hank Williams - Kaw-Liga
TTITLE13=Johnnie Ray - Please, Mr. Sun
TTITLE14=Lefty Frizzel - Give Me More, More, More (Of Your Kisses)
EXTD=
EXTT0=
EXTT1=
EXTT2=
EXTT3=
EXTT4=
EXTT5=
EXTT6=
EXTT7=
EXTT8=
EXTT9=
EXTT10=
EXTT11=
EXTT12=
EXTT13=
EXTT14=
PLAYORDER=
